<?xml version="1.0" encoding="UTF-8"?>
<svg version="1.1" xmlns="http://www.w3.org/2000/svg" width="512" height="512">
<path d="M0 0 C0.72056701 -0.00235223 1.44113401 -0.00470446 2.18353638 -0.00712797 C4.61075276 -0.01381275 7.03791553 -0.0133599 9.46514034 -0.01294994 C11.21791873 -0.0162489 12.97069636 -0.01997453 14.72347301 -0.02409142 C19.55027045 -0.03411603 24.37705546 -0.03782896 29.20386183 -0.04048073 C34.40582822 -0.04438243 39.60778474 -0.05396088 44.80974483 -0.0626936 C57.37776028 -0.08246204 69.94577653 -0.0925248 82.51380363 -0.10142139 C88.43128808 -0.10580375 94.34877164 -0.11117071 100.26625538 -0.11641026 C119.93571347 -0.13342308 139.605171 -0.14791739 159.27463531 -0.155159 C164.3797172 -0.15706891 169.48479908 -0.15898924 174.58988094 -0.16094494 C175.85873542 -0.16142868 177.12758989 -0.16191242 178.43489449 -0.16241082 C198.99079097 -0.17071161 219.54662926 -0.19604914 240.10250033 -0.22852562 C261.20340281 -0.26159158 282.30427571 -0.27960735 303.40520424 -0.28280324 C315.25394036 -0.28496878 327.10259164 -0.293724 338.95130253 -0.31926441 C349.04203125 -0.34096507 359.13265453 -0.34902492 369.22340394 -0.33929763 C374.37107927 -0.3347511 379.51853699 -0.33665986 384.66618252 -0.35605907 C389.38221712 -0.37367808 394.09787517 -0.37270315 398.8139137 -0.35716178 C400.51654036 -0.35478381 402.219193 -0.35911911 403.92177994 -0.37099043 C418.23921201 -0.46460482 429.96023081 1.94669383 440.82303524 11.91156483 C448.38148933 19.87726321 452.00468025 29.40374348 452.01975632 40.24868584 C452.02210855 40.96925284 452.02446078 41.68981985 452.02688429 42.43222222 C452.03356907 44.85943859 452.03311622 47.28660137 452.03270626 49.71382618 C452.03600521 51.46660457 452.03973085 53.21938219 452.04384774 54.97215885 C452.05387235 59.79895629 452.05758528 64.62574129 452.06023705 69.45254767 C452.06413875 74.65451405 452.0737172 79.85647058 452.08244991 85.05843067 C452.10221836 97.62644611 452.11228112 110.19446236 452.1211777 122.76248947 C452.12556007 128.67997392 452.13092702 134.59745747 452.13616657 140.51494122 C452.1531794 160.1843993 452.16767371 179.85385683 452.17491531 199.52332115 C452.17682523 204.62840304 452.17874556 209.73348491 452.18070126 214.83856678 C452.181185 216.10742125 452.18166874 217.37627572 452.18216714 218.68358033 C452.19046793 239.23947681 452.21580545 259.7953151 452.24828193 280.35118616 C452.2813479 301.45208864 452.29936367 322.55296155 452.30255955 343.65389007 C452.3047251 355.5026262 452.31348031 367.35127748 452.33902073 379.19998837 C452.36072139 389.29071709 452.36878124 399.38134036 452.35905395 409.47208977 C452.35450742 414.6197651 452.35641617 419.76722283 452.37581539 424.91486835 C452.3934344 429.63090295 452.39245947 434.346561 452.3769181 439.06259953 C452.37454012 440.76522619 452.37887543 442.46787884 452.39074675 444.17046577 C452.48436113 458.48789785 450.07306249 470.20891665 440.10819149 481.07172108 C432.1424931 488.63017517 422.61601283 492.25336609 411.77107048 492.26844215 C411.05050347 492.27079438 410.32993647 492.27314661 409.5875341 492.27557012 C407.16031772 492.2822549 404.73315495 492.28180206 402.30593014 492.2813921 C400.55315175 492.28469105 398.80037412 492.28841668 397.04759747 492.29253358 C392.22080003 492.30255818 387.39401502 492.30627111 382.56720865 492.30892289 C377.36524226 492.31282458 372.16328574 492.32240303 366.96132565 492.33113575 C354.3933102 492.35090419 341.82529395 492.36096696 329.25726685 492.36986354 C323.3397824 492.37424591 317.42229884 492.37961286 311.5048151 492.38485241 C291.83535701 492.40186524 272.16589948 492.41635955 252.49643517 492.42360115 C247.39135328 492.42551107 242.2862714 492.4274314 237.18118954 492.42938709 C235.91233507 492.42987083 234.64348059 492.43035457 233.33617599 492.43085297 C212.78027951 492.43915376 192.22444122 492.46449129 171.66857015 492.49696777 C150.56766767 492.53003374 129.46679477 492.54804951 108.36586624 492.55124539 C96.51713012 492.55341094 84.66847884 492.56216615 72.81976795 492.58770657 C62.72903923 492.60940722 52.63841595 492.61746708 42.54766654 492.60773978 C37.39999121 492.60319325 32.25253349 492.60510201 27.10488796 492.62450123 C22.38885336 492.64212024 17.67319531 492.6411453 12.95715678 492.62560394 C11.25453012 492.62322596 9.55187748 492.62756126 7.84929054 492.63943259 C-6.46814153 492.73304697 -18.18916033 490.32174833 -29.05196476 480.35687733 C-36.61041885 472.39117894 -40.23360977 462.86469867 -40.24868584 452.01975632 C-40.25103807 451.29918931 -40.2533903 450.57862231 -40.25581381 449.83621994 C-40.26249858 447.40900356 -40.26204574 444.98184078 -40.26163578 442.55461597 C-40.26493473 440.80183759 -40.26866037 439.04905996 -40.27277726 437.2962833 C-40.28280186 432.46948586 -40.2865148 427.64270086 -40.28916657 422.81589448 C-40.29306827 417.6139281 -40.30264672 412.41197158 -40.31137943 407.21001148 C-40.33114788 394.64199604 -40.34121064 382.07397979 -40.35010722 369.50595269 C-40.35448959 363.58846824 -40.35985654 357.67098468 -40.36509609 351.75350094 C-40.38210892 332.08404285 -40.39660323 312.41458532 -40.40384483 292.745121 C-40.40575475 287.64003912 -40.40767508 282.53495724 -40.40963078 277.42987537 C-40.41011452 276.1610209 -40.41059826 274.89216643 -40.41109665 273.58486182 C-40.41939745 253.02896535 -40.44473497 232.47312706 -40.47721145 211.91725599 C-40.51027742 190.81635351 -40.52829319 169.71548061 -40.53148907 148.61455208 C-40.53365462 136.76581596 -40.54240983 124.91716467 -40.56795025 113.06845379 C-40.5896509 102.97772507 -40.59771076 92.88710179 -40.58798347 82.79635238 C-40.58343694 77.64867705 -40.58534569 72.50121932 -40.60474491 67.3535738 C-40.62236392 62.6375392 -40.62138899 57.92188115 -40.60584762 53.20584262 C-40.60346964 51.50321596 -40.60780495 49.80056331 -40.61967627 48.09797638 C-40.71329065 33.7805443 -38.30199201 22.05952551 -28.33712101 11.19672108 C-20.37142262 3.63826698 -10.84494235 0.01507606 0 0 Z " fill="#282828" transform="translate(50.11446475982666,9.865778923034668)"/>
<path d="M0 0 C13.04707252 0.83788539 23.52544029 12.50081921 31.76953125 21.62109375 C32.47980469 22.43320313 33.19007813 23.2453125 33.921875 24.08203125 C35.50429195 25.87478992 37.11811444 27.58053196 38.83203125 29.24609375 C39.97671875 28.34890625 39.97671875 28.34890625 41.14453125 27.43359375 C53.33037578 19.35726119 70.89766199 19.91737332 84.94824219 19.98535156 C87.56339002 19.99601772 90.17784243 19.98543214 92.79296875 19.97265625 C109.98735692 19.95641559 125.28681266 21.25140991 140.83203125 29.24609375 C141.75822266 27.97765625 141.75822266 27.97765625 142.703125 26.68359375 C151.21313527 15.2047388 160.83240726 4.91263508 174.83203125 0.24609375 C177.1650295 0.20655141 179.49911314 0.20207643 181.83203125 0.24609375 C185.06278939 8.46984175 187.22157491 16.01012773 187.20703125 24.87109375 C187.20904541 25.64799561 187.21105957 26.42489746 187.21313477 27.2253418 C187.10065391 33.72460571 185.78846092 39.18706468 183.609375 45.328125 C182.75749922 48.52586977 182.74190329 50.1418246 183.83203125 53.24609375 C185.2315838 55.11934541 185.2315838 55.11934541 187.01953125 56.80859375 C201.60872921 72.77582684 202.28156006 96.99204002 202.26953125 117.55859375 C202.26993408 118.2746579 202.27033691 118.99072205 202.27075195 119.72848511 C202.23285063 131.47936445 201.2452146 142.25929838 196.83203125 153.24609375 C196.42186768 154.29337646 196.42186768 154.29337646 196.00341797 155.36181641 C187.95891204 175.15212047 172.2676027 188.30632647 152.87109375 196.67578125 C142.66326519 200.80450595 131.8462565 203.71314737 120.83203125 204.24609375 C121.1465625 204.74496094 121.46109375 205.24382812 121.78515625 205.7578125 C129.435355 218.5926339 130.40403826 230.70730134 130.22265625 245.234375 C130.21675858 246.82954344 130.21268808 248.42471969 130.21044922 250.01989746 C130.18966918 255.86624934 130.13382497 261.71243437 130.08203125 267.55859375 C129.99953125 280.65546875 129.91703125 293.75234375 129.83203125 307.24609375 C102.77203125 307.24609375 75.71203125 307.24609375 47.83203125 307.24609375 C47.83203125 293.71609375 47.83203125 280.18609375 47.83203125 266.24609375 C44.86203125 266.90609375 41.89203125 267.56609375 38.83203125 268.24609375 C21.79713058 270.2506695 5.47598566 267.00965778 -8.16796875 256.24609375 C-16.41129168 249.2196423 -21.24584408 241.29868645 -25.85546875 231.62109375 C-31.93311786 219.3229787 -39.5116367 208.89442293 -50.16796875 200.24609375 C-51.18232321 199.26065729 -52.18858085 198.26628948 -53.16796875 197.24609375 C-52.83796875 196.25609375 -52.50796875 195.26609375 -52.16796875 194.24609375 C-40.24245975 193.36634309 -32.61213703 195.00760496 -22.63671875 202.02734375 C-19.66686366 204.69645402 -17.51524073 207.71250365 -15.29296875 210.99609375 C-6.34046653 223.81967979 3.1351668 234.66765677 19.1875 237.89453125 C28.83989751 239.17771556 37.64004439 238.3976321 46.83203125 235.24609375 C46.93 234.50746094 47.02796875 233.76882813 47.12890625 233.0078125 C48.64308543 222.73488995 51.5881012 214.16516306 56.83203125 205.24609375 C56.15849609 205.10099365 55.48496094 204.95589355 54.79101562 204.80639648 C27.78184241 198.89871519 3.26545649 190.39631421 -12.54296875 165.87109375 C-21.18374989 150.89137891 -23.5533601 136.36673442 -23.41796875 119.24609375 C-23.40672974 117.35467651 -23.40672974 117.35467651 -23.39526367 115.42504883 C-23.13704217 92.69434399 -21.91336452 72.4431271 -7.16796875 54.24609375 C-6.54535156 53.77816406 -5.92273438 53.31023437 -5.28125 52.828125 C-4.91386719 52.30605469 -4.54648438 51.78398437 -4.16796875 51.24609375 C-4.62800033 48.77612555 -5.21146038 46.61960125 -5.98046875 44.24609375 C-10.09087592 29.75457301 -9.24254892 15.38970274 -4.16796875 1.24609375 C-3.16796875 0.24609375 -3.16796875 0.24609375 0 0 Z " fill="#FEFEFE" transform="translate(181.16796875,102.75390625)"/>
</svg>
