<svg xmlns="http://www.w3.org/2000/svg" viewBox="0 23.25 269.54998779296875 37.099998474121094" data-asc="1.2"><g fill="#0070f3"><g fill="#0070f3" transform="translate(0, 0)"><path d="M6 60.20Q4.20 60.20 2.75 58.70Q1.30 57.20 1.30 53.75Q1.30 50.95 1.95 48.25Q2.60 45.55 3.43 42.77Q4.25 40 4.83 37.02Q5.40 34.05 5.20 30.75Q3.85 30.95 2.55 31.45Q1.25 31.95 0 32.90Q0 29.75 0.55 27.77Q1.10 25.80 2.70 24.90Q4.30 24 7.45 24Q9.15 24 11.25 24.25Q13.35 24.50 15.58 24.75Q17.80 25 19.80 25Q21.75 25 23.30 24.63Q24.85 24.25 25.70 23.25Q26.70 23.90 27.23 25.02Q27.75 26.15 27.75 27.45Q27.75 28.80 27.13 30.07Q26.50 31.35 25.20 32.17Q23.90 33 21.80 33Q19.60 33 17 32.30Q14.40 31.60 11.65 31.10Q11.90 32.20 12.03 33.30Q12.15 34.40 12.15 35.55Q12.15 36.80 12.05 38.02Q11.95 39.25 11.75 40.55Q12.80 40 14.30 39.55Q15.80 39.10 17.38 38.80Q18.95 38.50 20.20 38.50Q21 38.50 21.60 38.65Q22.10 39.70 22.10 41.20Q22.10 43.60 20.90 46.10L20.55 46.25Q18.70 45.25 16.27 44.70Q13.85 44.15 11.20 43.95Q10.70 46.80 10.25 49.75Q9.80 52.70 9.80 55.80Q9.80 56.45 9.83 57.15Q9.85 57.85 9.90 58.55Q8.25 60.20 6 60.20ZM38.55 60.35Q34.90 60.35 32.50 58.88Q30.10 57.40 28.90 54.98Q27.70 52.55 27.70 49.75Q27.70 47.10 28.73 44.42Q29.75 41.75 31.73 39.55Q33.70 37.35 36.53 36Q39.35 34.65 42.90 34.65Q47.30 34.65 49.33 36.63Q51.35 38.60 51.35 41.40Q51.35 43.80 50.08 45.83Q48.80 47.85 46.70 49.08Q44.60 50.30 42.10 50.30Q40.80 50.30 39.45 49.90Q38.10 49.50 36.80 48.65Q37.05 51.75 38.60 53.15Q40.15 54.55 42.30 54.55Q43.80 54.55 45.30 53.98Q46.80 53.40 48.08 52.48Q49.35 51.55 50.05 50.50L50.40 50.75Q50.40 53.35 49.33 55.17Q48.25 57 46.50 58.15Q44.75 59.30 42.67 59.83Q40.60 60.35 38.55 60.35M39.70 46.85Q41.30 46.85 42.30 45.92Q43.30 45 43.80 43.75Q44.30 42.50 44.30 41.55Q44.30 40.40 43.65 39.63Q43 38.85 41.85 38.85Q40.95 38.85 39.88 39.50Q38.80 40.15 37.95 41.72Q37.10 43.30 36.85 46.10Q38.45 46.85 39.70 46.85ZM59.25 60.20Q57.45 60.20 56.02 58.73Q54.60 57.25 54.60 54.65Q54.60 53.35 54.95 51.67Q55.30 50 55.73 48.25Q56.15 46.50 56.50 44.95Q56.85 43.40 56.85 42.35Q56.85 41.50 56.45 40.97Q56.05 40.45 55.40 40.45Q54.55 40.45 53.55 41.45L53.25 41.25Q53.20 40.45 53.60 39.35Q54 38.25 54.90 37.22Q55.80 36.20 57.25 35.50Q58.70 34.80 60.70 34.80Q62.95 34.80 64.08 36.38Q65.20 37.95 65.20 40.15Q65.20 40.40 65.20 40.67Q65.20 40.95 65.15 41.20Q66.10 39.65 67.38 38.20Q68.65 36.75 70.28 35.77Q71.90 34.80 73.80 34.80Q76.25 34.80 77.20 36.38Q78.15 37.95 78.15 39.95Q78.15 40.35 78.13 40.72Q78.10 41.10 78.05 41.45Q79.10 39.90 80.38 38.38Q81.65 36.85 83.30 35.83Q84.95 34.80 87.10 34.80Q89.75 34.80 90.72 36.35Q91.70 37.90 91.70 40Q91.70 41.85 91.25 44.23Q90.80 46.60 90.35 48.90Q89.90 51.20 89.90 52.80Q89.90 53.75 90.18 54.35Q90.45 54.95 91.10 54.95Q91.65 54.95 92.13 54.63Q92.60 54.30 92.80 53.85L93.20 54Q93.20 55.85 92.15 57.25Q91.10 58.65 89.50 59.42Q87.90 60.20 86.30 60.20Q84.35 60.20 82.88 58.90Q81.40 57.60 81.40 54.60Q81.40 52.75 81.88 50.60Q82.35 48.45 82.83 46.42Q83.30 44.40 83.30 43.10Q83.30 41.25 82 41.25Q81.05 41.25 80.13 42.02Q79.20 42.80 78.47 44.08Q77.75 45.35 77.30 46.75Q76.85 48.15 76.85 49.45Q76.85 50.65 77.13 52.08Q77.40 53.50 77.40 54.80Q77.40 57.40 75.95 58.80Q74.50 60.20 72.55 60.20Q70.75 60.20 69.33 59Q67.90 57.80 67.90 55.40Q67.90 54.30 68.20 52.73Q68.50 51.15 68.88 49.42Q69.25 47.70 69.55 46.10Q69.85 44.50 69.85 43.30Q69.85 42.35 69.58 41.80Q69.30 41.25 68.50 41.25Q67.35 41.25 66.30 42.40Q65.25 43.55 64.50 45.17Q63.75 46.80 63.50 48.30Q63.45 48.65 63.43 48.85Q63.40 49.05 63.40 49.05Q63.40 50.60 63.75 51.88Q64.10 53.15 64.10 54.50Q64.10 56.95 62.63 58.58Q61.15 60.20 59.25 60.20ZM105 33.25Q103 33.25 101.72 32.02Q100.45 30.80 100.45 28.95Q100.45 26.95 101.95 25.50Q103.45 24.05 105.60 24.05Q107.60 24.05 108.88 25.30Q110.15 26.55 110.15 28.40Q110.15 30.40 108.65 31.82Q107.15 33.25 105 33.25M101.50 60.20Q99.55 60.20 98 58.83Q96.45 57.45 96.45 54.40Q96.45 52.65 96.92 51.13Q97.40 49.60 98.02 48.15Q98.65 46.70 99.13 45.33Q99.60 43.95 99.60 42.60Q99.60 41.40 99.20 40.88Q98.80 40.35 98.25 40.35Q97.40 40.35 96.60 41.45L96.25 41.25Q96.45 39.25 97.52 37.83Q98.60 36.40 100.17 35.60Q101.75 34.80 103.30 34.80Q105.20 34.80 106.60 36.02Q108 37.25 108 40Q108 41.65 107.52 43.47Q107.05 45.30 106.42 47.10Q105.80 48.90 105.32 50.45Q104.85 52 104.85 53.10Q104.85 54.05 105.22 54.45Q105.60 54.85 106.05 54.85Q106.50 54.85 106.92 54.58Q107.35 54.30 107.55 53.95L107.90 54.05Q107.90 55.90 106.92 57.27Q105.95 58.65 104.50 59.42Q103.05 60.20 101.50 60.20ZM143.40 60.35Q141.40 60.35 140.10 59.45Q138.80 58.55 138 57.02Q137.20 55.50 136.72 53.63Q136.25 51.75 135.85 49.85Q135.35 47.20 134.63 44.90Q133.90 42.60 132.30 41.70Q131.30 45.35 130.40 49.02Q129.50 52.70 129.50 56.30Q129.50 56.85 129.53 57.42Q129.55 58 129.60 58.55Q127.85 60.20 125.55 60.20Q123.65 60.20 122.13 58.75Q120.60 57.30 120.60 54.05Q120.60 51.60 121.40 49.05Q122.20 46.50 123.27 43.90Q124.35 41.30 125.15 38.72Q125.95 36.15 125.95 33.65Q125.95 32 125.55 31.32Q125.15 30.65 124.50 30.65Q123.80 30.65 122.97 31.35Q122.15 32.05 121.40 33.50L121.05 33.40Q121.15 30.85 122.20 28.70Q123.25 26.55 125.02 25.27Q126.80 24 128.90 24Q131 24 132.60 25.57Q134.20 27.15 134.20 31Q134.20 32.70 133.88 34.63Q133.55 36.55 133.10 38.55Q135.35 36.60 137.03 34.22Q138.70 31.85 139.63 29.57Q140.55 27.30 140.55 25.60Q140.55 24.50 140.10 23.75Q142.55 23.75 144.47 24.45Q146.40 25.15 147.55 26.38Q148.70 27.60 148.70 29.20Q148.70 31.35 146.28 33.90Q143.85 36.45 138.10 38.95Q139.55 39.60 140.47 40.88Q141.40 42.15 142.03 43.63Q142.65 45.10 143.10 46.50Q143.95 48.95 144.78 50.63Q145.60 52.30 147.15 52.30Q148.15 52.30 148.93 51.65Q149.70 51 150.05 50.20L150.35 50.35Q150.35 53.05 149.55 55.33Q148.75 57.60 147.20 58.98Q145.65 60.35 143.40 60.35ZM158.05 60.20Q156.70 60.20 155.42 59.52Q154.15 58.85 153.35 57.35Q152.55 55.85 152.55 53.50Q152.55 51.40 153.13 48.58Q153.70 45.75 154.42 42.70Q155.15 39.65 155.70 36.75Q156.25 33.85 156.20 31.60Q156.20 29.45 155.70 28.55L155.65 28.40Q156.20 26.80 157.60 25.90Q159 25 160.55 25Q162.30 25 163.67 26.32Q165.05 27.65 165.05 30.75Q165.05 32.40 164.65 34.67Q164.25 36.95 163.70 39.52Q163.15 42.10 162.57 44.60Q162 47.10 161.60 49.20Q161.20 51.30 161.20 52.65Q161.20 54.05 161.60 54.58Q162 55.10 162.50 55.10Q163.05 55.10 163.55 54.67Q164.05 54.25 164.20 53.90L164.60 54Q164.55 55.80 163.57 57.20Q162.60 58.60 161.13 59.40Q159.65 60.20 158.05 60.20ZM178.40 60.35Q174.75 60.35 172.35 58.88Q169.95 57.40 168.75 54.98Q167.55 52.55 167.55 49.75Q167.55 47.10 168.58 44.42Q169.60 41.75 171.58 39.55Q173.55 37.35 176.38 36Q179.20 34.65 182.75 34.65Q187.15 34.65 189.18 36.63Q191.20 38.60 191.20 41.40Q191.20 43.80 189.93 45.83Q188.65 47.85 186.55 49.08Q184.45 50.30 181.95 50.30Q180.65 50.30 179.30 49.90Q177.95 49.50 176.65 48.65Q176.90 51.75 178.45 53.15Q180 54.55 182.15 54.55Q183.65 54.55 185.15 53.98Q186.65 53.40 187.93 52.48Q189.20 51.55 189.90 50.50L190.25 50.75Q190.25 53.35 189.18 55.17Q188.10 57 186.35 58.15Q184.60 59.30 182.53 59.83Q180.45 60.35 178.40 60.35M179.55 46.85Q181.15 46.85 182.15 45.92Q183.15 45 183.65 43.75Q184.15 42.50 184.15 41.55Q184.15 40.40 183.50 39.63Q182.85 38.85 181.70 38.85Q180.80 38.85 179.72 39.50Q178.65 40.15 177.80 41.72Q176.95 43.30 176.70 46.10Q178.30 46.85 179.55 46.85ZM201.15 60.20Q198.25 60.20 196.55 58.67Q194.85 57.15 194.85 53.95Q194.85 52.10 195.33 50Q195.80 47.90 196.25 46.25Q196.70 44.65 196.98 43.45Q197.25 42.25 197.25 41.60Q197.25 40.80 196.90 40.45Q196.55 40.10 196.05 40.10Q194.85 40.10 194.05 41.25L193.85 41.05Q193.90 39.35 194.95 37.92Q196.00 36.50 197.65 35.65Q199.30 34.80 201.00 34.80Q202.90 34.80 204.25 35.92Q205.60 37.05 205.50 39.45Q205.45 40.50 205.13 42.10Q204.80 43.70 204.25 45.90Q203.90 47.30 203.53 49.08Q203.15 50.85 203.15 52.30Q203.15 53.40 203.50 54.05Q203.85 54.70 204.65 54.70Q205.70 54.70 206.98 53.52Q208.25 52.35 209.20 49.67Q210.15 47 210.30 42.55Q210.45 39.15 209.85 37.60L209.85 37.35Q210.30 36.65 211.23 36Q212.15 35.35 213.30 34.92Q214.45 34.50 215.45 34.50Q217.05 34.50 218.18 36.05Q219.30 37.60 219.15 41.45Q219.05 45.15 217.83 48.15Q216.60 51.15 214.65 53.40Q212.70 55.65 210.38 57.15Q208.05 58.65 205.65 59.42Q203.25 60.20 201.15 60.20ZM232.20 60.35Q228.55 60.35 226.15 58.88Q223.75 57.40 222.55 54.98Q221.35 52.55 221.35 49.75Q221.35 47.10 222.38 44.42Q223.40 41.75 225.38 39.55Q227.35 37.35 230.18 36Q233.00 34.65 236.55 34.65Q240.95 34.65 242.98 36.63Q245.00 38.60 245.00 41.40Q245.00 43.80 243.73 45.83Q242.45 47.85 240.35 49.08Q238.25 50.30 235.75 50.30Q234.45 50.30 233.10 49.90Q231.75 49.50 230.45 48.65Q230.70 51.75 232.25 53.15Q233.80 54.55 235.95 54.55Q237.45 54.55 238.95 53.98Q240.45 53.40 241.73 52.48Q243.00 51.55 243.70 50.50L244.05 50.75Q244.05 53.35 242.98 55.17Q241.90 57 240.15 58.15Q238.40 59.30 236.33 59.83Q234.25 60.35 232.20 60.35M233.35 46.85Q234.95 46.85 235.95 45.92Q236.95 45 237.45 43.75Q237.95 42.50 237.95 41.55Q237.95 40.40 237.30 39.63Q236.65 38.85 235.50 38.85Q234.60 38.85 233.53 39.50Q232.45 40.15 231.60 41.72Q230.75 43.30 230.50 46.10Q232.10 46.85 233.35 46.85ZM253.35 60.20Q251.55 60.20 250.15 58.73Q248.75 57.25 248.75 54.55Q248.75 53.25 249.05 51.60Q249.35 49.95 249.75 48.23Q250.15 46.50 250.45 44.98Q250.75 43.45 250.75 42.45Q250.75 41.40 250.38 40.77Q250.00 40.15 249.40 40.15Q248.45 40.15 247.45 41.45L247.15 41.25Q247.10 40.45 247.50 39.35Q247.90 38.25 248.75 37.22Q249.60 36.20 250.93 35.50Q252.25 34.80 254.05 34.80Q256.70 34.80 257.90 36.33Q259.10 37.85 259.10 40Q259.10 40.35 259.08 40.72Q259.05 41.10 259 41.45Q260.80 38.20 262.78 36.47Q264.75 34.75 266.45 34.75Q268.05 34.75 268.80 36Q269.55 37.25 269.55 39Q269.55 40.60 268.93 42.25Q268.30 43.90 267.08 44.98Q265.85 46.05 264.10 46L263.90 45.90Q263.85 44.60 263.05 43.85Q262.25 43.10 261.25 43.10Q259.90 43.10 258.73 44.45Q257.55 45.80 257.55 48.35Q257.55 49.90 257.90 51.70Q258.25 53.50 258.25 54.75Q258.25 56.25 257.55 57.50Q256.85 58.75 255.75 59.48Q254.65 60.20 253.35 60.20Z"/></g></g></svg>